<svg width="703" height="666" viewBox="0 0 703 666" fill="none" xmlns="http://www.w3.org/2000/svg">
<path d="M17.0186 0H703V596.961L691.749 606.371L675.508 614.852L638.625 629.139L604.379 639.289L561.596 648.112L517.579 656.46L465.176 663.29L408.295 665.187L346.045 662.854L270.989 655.435L223.86 648.017L178.914 639.289L132.222 623.58L91.6387 603.943L73.6146 591.952L58.4742 576.888L43.6375 559.698L28.0798 538.828L17.455 519.286L6.10925 485.249L1.89728 462.178L0 437.248L1.89728 410.572L6.10925 386.628L9.86587 369.211L15.9372 344.926L20.8701 328.609L26.9414 313.81L36.2191 295.862L45.5348 277.762L56.1596 260.307L64.5076 248.165L73.7474 235.206L78.9269 227.294L84.6188 217.049L88.1477 208.587L93.7257 196.558L99.4176 183.657L102.074 176.827L104.73 169.996L105.868 166.581L107.007 163.166L107.766 160.51L108.525 157.854V155.577V152.541L108.145 148.747L107.766 146.47L107.386 144.193L105.868 137.743L103.971 130.533L101.694 122.564L99.4176 116.114L96.7614 110.042L92.5115 102.112L82.7215 86.8955L78.9269 81.5831L74.3735 75.8913L70.1994 71.3378L65.4562 66.7654L59.1952 61.8514L52.8014 56.7287L43.258 50.0883L39.8429 47.8115L37.1867 45.5348L32.6333 40.2224L28.0798 34.5305L23.9058 28.0798L22.0085 24.2852L19.6369 16.5822L17.8345 8.7275L17.0186 0Z" fill="#90BBDE"/>
</svg>
