<svg width="1257" height="480" viewBox="0 0 1257 480" fill="none" xmlns="http://www.w3.org/2000/svg">
<g clip-path="url(#clip0)">
<path d="M0 30.5663L42.383 44.9844L93.0977 57.9607L123.527 63.7279L168.445 70.3602L212.639 74.974L246.329 77.5693H283.64L335.804 73.5322L382.896 66.3232L417.31 58.8258L494.468 38.9288L561.484 24.5107L669.434 8.36249L727.031 2.88362L787.527 0H842.589L894.752 2.88362L945.105 10.6694L994.733 21.0504L1045.81 32.8732L1093.26 47.0029L1116.45 54.7887L1137.46 61.7094L1161.37 71.5137L1191.43 85.355L1224.4 102.08L1238.53 110.731L1248.61 117.984L1257 124.713V480.41H0V30.5663Z" fill="#90BBDE"/>
<path d="M1257 480.41V130.125L1238.75 119.593L1206.8 103.285L1181.39 91.7332L1159.06 83.5791L1134.42 74.4058L1083.98 57.7579L1029.7 43.8281L976.949 31.597L923.433 22.4237L867.993 19.0261H809.472L745.176 22.4237L683.96 28.879L569.228 47.9051L498.002 64.8927L415.996 88.3357L379.42 97.1693L329.37 105.663L273.929 110.42H234.273L198.468 107.362L151.497 101.926L103.756 94.1115L71.4156 87.3164L17.5148 72.0276L0 66.9313V480.41H1257Z" fill="#77AAD3"/>
<mask id="mask0" style="mask-type:alpha" maskUnits="userSpaceOnUse" x="527" y="342" width="496" height="138">
<rect x="527" y="342" width="496" height="138" fill="#C4C4C4"/>
</mask>
<g mask="url(#mask0)">
<path d="M529.282 480.309C555.684 440.148 591.652 407.178 633.954 384.364C676.257 361.55 723.566 349.608 771.627 349.611C819.689 349.613 866.997 361.561 909.296 384.38C951.596 407.199 987.561 440.173 1013.96 480.337L971.202 508.436C949.463 475.358 919.843 448.201 885.006 429.408C850.169 410.615 811.207 400.775 771.625 400.773C732.042 400.77 693.079 410.606 658.24 429.395C623.401 448.184 593.778 475.337 572.034 508.413L529.282 480.309Z" fill="#4E87B7"/>
</g>
</g>
<defs>
<clipPath id="clip0">
<rect width="1257" height="480" fill="white"/>
</clipPath>
</defs>
</svg>
